<?xml version="1.0" standalone="no"?>
<!DOCTYPE svg PUBLIC "-//W3C//DTD SVG 20010904//EN"
 "http://www.w3.org/TR/2001/REC-SVG-20010904/DTD/svg10.dtd">
<svg version="1.0" xmlns="http://www.w3.org/2000/svg"
 width="5000.000000pt" height="5000.000000pt" viewBox="0 0 5000.000000 5000.000000"
 preserveAspectRatio="xMidYMid meet">

<g transform="translate(0.000000,5000.000000) scale(0.100000,-0.100000)"
fill="#000000" stroke="none">
<path d="M0 25000 l0 -25000 25000 0 25000 0 0 25000 0 25000 -25000 0 -25000
0 0 -25000z m38126 2116 c76 -20 172 -75 226 -129 196 -196 155 -537 -82 -696
-93 -61 -181 -85 -315 -85 -85 0 -126 4 -181 22 -229 71 -365 279 -333 510 27
192 184 348 390 387 84 16 216 12 295 -9z m-8118 -2213 l2 -1993 -420 0 -420
0 0 1995 0 1995 418 -2 417 -3 3 -1992z m-10531 1585 c32 -101 223 -695 423
-1320 201 -625 368 -1134 371 -1130 3 4 204 598 445 1319 l439 1313 404 -3
404 -2 427 -1323 c235 -727 429 -1325 432 -1327 2 -2 95 273 207 613 111 339
308 938 437 1330 l235 712 414 0 c228 0 415 -3 414 -7 0 -5 -276 -849 -612
-1878 l-613 -1870 -470 -3 -470 -2 -403 1242 c-222 684 -408 1255 -415 1271
-10 24 -52 -94 -436 -1243 l-425 -1270 -467 0 -467 0 -95 288 c-816 2483
-1136 3460 -1136 3465 0 4 202 7 449 7 l449 0 59 -182z m7343 -673 c298 -50
524 -153 694 -315 128 -122 213 -259 269 -435 70 -218 77 -330 77 -1332 l0
-823 -395 0 -395 0 0 177 0 178 -34 -50 c-48 -71 -150 -165 -231 -213 -322
-189 -920 -184 -1265 11 -182 103 -313 253 -380 434 -40 112 -54 213 -47 346
7 133 25 204 77 312 110 227 339 384 665 454 143 31 203 34 670 40 l490 6 -3
65 c-9 210 -137 386 -331 455 -178 62 -486 62 -711 -1 -150 -43 -286 -103
-393 -176 -32 -22 -60 -38 -62 -36 -9 10 -297 580 -294 582 214 158 570 283
949 331 149 19 515 13 650 -10z m6500 1 c157 -34 299 -94 422 -178 74 -49 180
-154 226 -221 l33 -48 71 76 c172 185 418 316 695 372 124 25 442 25 566 0
440 -89 734 -364 842 -791 48 -191 48 -190 52 -1178 l4 -938 -420 0 -420 0 -3
858 -4 857 -23 85 c-59 212 -169 332 -356 386 -77 22 -255 22 -340 -1 -169
-44 -300 -148 -373 -297 -88 -179 -92 -225 -92 -1135 l0 -753 -420 0 -419 0
-4 868 c-3 966 0 918 -74 1071 -61 127 -161 209 -300 247 -80 21 -259 21 -343
-1 -196 -51 -340 -188 -411 -392 -46 -132 -49 -200 -49 -1020 l0 -773 -420 0
-420 0 0 1445 0 1445 400 0 400 0 0 -166 0 -166 67 62 c164 154 378 255 628
296 106 18 384 12 485 -10z m5050 -1461 l0 -1445 -415 0 -415 0 0 1445 0 1445
415 0 415 0 0 -1445z m2258 1022 c167 -229 307 -415 311 -412 5 2 147 191 317
420 l309 415 443 0 c243 0 442 -2 442 -5 0 -4 -982 -1300 -1061 -1400 -5 -7
214 -305 547 -744 304 -403 554 -735 554 -737 0 -2 -213 -4 -473 -4 l-472 0
-302 423 c-166 232 -308 430 -316 441 -13 17 -39 -16 -337 -419 -178 -240
-328 -439 -334 -441 -6 -2 -212 -3 -458 -2 l-447 3 550 720 c302 395 549 723
549 729 0 5 -238 327 -530 716 -291 389 -530 710 -530 713 0 4 210 6 467 5
l467 -3 304 -418z"/>
<path d="M26327 24109 c-205 -18 -339 -94 -383 -216 -7 -21 -13 -75 -14 -120
0 -73 3 -88 33 -144 69 -134 213 -199 439 -199 125 0 220 21 328 72 108 52
210 150 258 250 l33 67 -3 148 -3 148 -300 1 c-165 1 -340 -2 -388 -7z"/>
</g>
</svg>
